<svg xmlns="http://www.w3.org/2000/svg" width="948" height="420" viewBox="0 0 948 420" role="img" aria-labelledby="vt"><title id="vt">VECTORA — semantic vector engineering system</title><defs><pattern id="grid" width="22" height="22" patternUnits="userSpaceOnUse"><path d="M22 0H0V22" fill="none" stroke="#131B26" stroke-width="1"/></pattern><linearGradient id="glowbg" x1="0" y1="0" x2="1" y2="1"><stop offset="0" stop-color="#0E1B22" stop-opacity="0.85"/><stop offset="1" stop-color="#080A0D" stop-opacity="0"/></linearGradient><filter id="softglow" x="-40%" y="-40%" width="180%" height="180%"><feGaussianBlur stdDeviation="2.6" result="b"/><feMerge><feMergeNode in="b"/><feMergeNode in="SourceGraphic"/></feMerge></filter></defs><rect width="948" height="420" fill="#080A0D"/><rect width="948" height="420" fill="url(#grid)" opacity="0.55"/><style>.glow{filter:url(#softglow)}</style><text x="36" y="118" font-family="ui-monospace,'Cascadia Code','JetBrains Mono',Menlo,Consolas,'DejaVu Sans Mono',monospace" font-size="54" fill="#F4F1EB" font-weight="700" letter-spacing="6" class="glow">VECTORA</text><line x1="38" y1="138" x2="214" y2="138" stroke="#19D3C5" stroke-width="2.5" stroke-linecap="butt"/><text x="36" y="168" font-family="ui-monospace,'Cascadia Code','JetBrains Mono',Menlo,Consolas,'DejaVu Sans Mono',monospace" font-size="12.5" fill="#19D3C5" font-weight="700" letter-spacing="2">SEMANTIC VECTOR ENGINEERING SYSTEM</text><text x="36" y="196" font-family="ui-monospace,'Cascadia Code','JetBrains Mono',Menlo,Consolas,'DejaVu Sans Mono',monospace" font-size="11" fill="#8A94A6" font-weight="400">Intent in — editable vector structure out.</text><text x="36" y="228" font-family="ui-monospace,'Cascadia Code','JetBrains Mono',Menlo,Consolas,'DejaVu Sans Mono',monospace" font-size="11" fill="#8B6BFF" font-weight="400">&gt; &quot;neon isometric city, six-layer scene&quot;</text><rect x="316" y="219" width="8" height="12" rx="0" fill="#8B6BFF"><animate attributeName="opacity" values="1;1;0;0" keyTimes="0;0.5;0.5;1" dur="1.1s" repeatCount="indefinite"/></rect><rect x="36" y="258" width="51" height="22" rx="3" fill="#0A0F15" stroke="#2A3542" stroke-width="1"/><text x="61.5" y="273" font-family="ui-monospace,'Cascadia Code','JetBrains Mono',Menlo,Consolas,'DejaVu Sans Mono',monospace" font-size="9" fill="#19D3C5" font-weight="400" text-anchor="middle" letter-spacing="1">PROMPT</text><text x="89" y="273" font-family="ui-monospace,'Cascadia Code','JetBrains Mono',Menlo,Consolas,'DejaVu Sans Mono',monospace" font-size="9" fill="#5A6472" font-weight="400">→</text><rect x="103" y="258" width="68" height="22" rx="3" fill="#0A0F15" stroke="#2A3542" stroke-width="1"/><text x="137" y="273" font-family="ui-monospace,'Cascadia Code','JetBrains Mono',Menlo,Consolas,'DejaVu Sans Mono',monospace" font-size="9" fill="#19D3C5" font-weight="400" text-anchor="middle" letter-spacing="1">CONSTRUCT</text><text x="173" y="273" font-family="ui-monospace,'Cascadia Code','JetBrains Mono',Menlo,Consolas,'DejaVu Sans Mono',monospace" font-size="9" fill="#5A6472" font-weight="400">→</text><rect x="187" y="258" width="40" height="22" rx="3" fill="#0A0F15" stroke="#2A3542" stroke-width="1"/><text x="207" y="273" font-family="ui-monospace,'Cascadia Code','JetBrains Mono',Menlo,Consolas,'DejaVu Sans Mono',monospace" font-size="9" fill="#19D3C5" font-weight="400" text-anchor="middle" letter-spacing="1">EDIT</text><text x="229" y="273" font-family="ui-monospace,'Cascadia Code','JetBrains Mono',Menlo,Consolas,'DejaVu Sans Mono',monospace" font-size="9" fill="#5A6472" font-weight="400">→</text><rect x="243" y="258" width="57" height="22" rx="3" fill="#0A0F15" stroke="#2A3542" stroke-width="1"/><text x="271.5" y="273" font-family="ui-monospace,'Cascadia Code','JetBrains Mono',Menlo,Consolas,'DejaVu Sans Mono',monospace" font-size="9" fill="#19D3C5" font-weight="400" text-anchor="middle" letter-spacing="1">ANIMATE</text><text x="302" y="273" font-family="ui-monospace,'Cascadia Code','JetBrains Mono',Menlo,Consolas,'DejaVu Sans Mono',monospace" font-size="9" fill="#5A6472" font-weight="400">→</text><rect x="316" y="258" width="51" height="22" rx="3" fill="#0A0F15" stroke="#2A3542" stroke-width="1"/><text x="341.5" y="273" font-family="ui-monospace,'Cascadia Code','JetBrains Mono',Menlo,Consolas,'DejaVu Sans Mono',monospace" font-size="9" fill="#A9E838" font-weight="400" text-anchor="middle" letter-spacing="1">EXPORT</text><line x1="36" y1="318" x2="424" y2="318" stroke="#1D2530" stroke-width="1" stroke-linecap="butt"/><text x="36" y="344" font-family="ui-monospace,'Cascadia Code','JetBrains Mono',Menlo,Consolas,'DejaVu Sans Mono',monospace" font-size="10" fill="#5A6472" font-weight="400" letter-spacing="1">PIXELS ARE OUTPUT — STRUCTURE IS THE PRODUCT</text><text x="36" y="366" font-family="ui-monospace,'Cascadia Code','JetBrains Mono',Menlo,Consolas,'DejaVu Sans Mono',monospace" font-size="9.5" fill="#5A6472" font-weight="400" opacity="0.8">every node has identity · every mutation has history</text><rect x="470" y="48" width="442" height="324" rx="4" fill="#0D1319" stroke="#1D2530" stroke-width="1"/><path d="M470 57V48H479" fill="none" stroke="#19D3C5" stroke-width="2" stroke-linecap="square" stroke-linejoin="round"/><path d="M903 48H912V57" fill="none" stroke="#19D3C5" stroke-width="2" stroke-linecap="square" stroke-linejoin="round"/><path d="M912 363V372H903" fill="none" stroke="#19D3C5" stroke-width="2" stroke-linecap="square" stroke-linejoin="round"/><path d="M479 372H470V363" fill="none" stroke="#19D3C5" stroke-width="2" stroke-linecap="square" stroke-linejoin="round"/><text x="486" y="72" font-family="ui-monospace,'Cascadia Code','JetBrains Mono',Menlo,Consolas,'DejaVu Sans Mono',monospace" font-size="9" fill="#5A6472" font-weight="400" letter-spacing="2">DOCUMENT VIEWPORT</text><text x="896" y="72" font-family="ui-monospace,'Cascadia Code','JetBrains Mono',Menlo,Consolas,'DejaVu Sans Mono',monospace" font-size="9" fill="#5A6472" font-weight="400" text-anchor="end">0 0 1024 1024</text><circle cx="716" cy="200" r="96" fill="none" stroke="#2A3542" stroke-width="1" stroke-dasharray="3 5"><animateTransform attributeName="transform" type="rotate" values="0 716 200; 360 716 200" dur="26s" repeatCount="indefinite"/></circle><circle cx="716" cy="104" r="4" fill="#FFB400"><animateTransform attributeName="transform" type="rotate" values="0 716 200; 360 716 200" dur="9s" repeatCount="indefinite"/></circle><path d="M636 148C700 88 812 108 826 192C836 258 742 300 664 256" fill="none" stroke="#19D3C5" stroke-width="2.4" stroke-linecap="round" stroke-linejoin="round" stroke-dasharray="640 640"><animate attributeName="stroke-dashoffset" values="640;0;0;640" keyTimes="0;0.45;0.8;1" dur="6.5s" repeatCount="indefinite"/></path><path d="M608 262C668 238 746 250 828 208" fill="none" stroke="#8B6BFF" stroke-width="2" stroke-linecap="round" stroke-linejoin="round" stroke-dasharray="300 300"><animate attributeName="stroke-dashoffset" values="300;0;0;300" keyTimes="0;0.5;0.85;1" dur="6.5s" begin="0.8s" repeatCount="indefinite"/></path><path d="M696 88H704M700 84V92" fill="none" stroke="#5A6472" stroke-width="1" stroke-linecap="round" stroke-linejoin="round"/><path d="M808 108H816M812 104V112" fill="none" stroke="#5A6472" stroke-width="1" stroke-linecap="round" stroke-linejoin="round"/><circle cx="636" cy="148" r="4" fill="#19D3C5" stroke="#080A0D" stroke-width="1"><animate attributeName="opacity" values="0.25;1;0.25" dur="2.6s" begin="0s" repeatCount="indefinite"/></circle><circle cx="826" cy="192" r="4" fill="#19D3C5" stroke="#080A0D" stroke-width="1"><animate attributeName="opacity" values="0.25;1;0.25" dur="2.6s" begin="0.5s" repeatCount="indefinite"/></circle><circle cx="664" cy="256" r="4" fill="#19D3C5" stroke="#080A0D" stroke-width="1"><animate attributeName="opacity" values="0.25;1;0.25" dur="2.6s" begin="1s" repeatCount="indefinite"/></circle><circle cx="828" cy="208" r="4" fill="#19D3C5" stroke="#080A0D" stroke-width="1"><animate attributeName="opacity" values="0.25;1;0.25" dur="2.6s" begin="1.5s" repeatCount="indefinite"/></circle><circle cx="608" cy="262" r="4" fill="#19D3C5" stroke="#080A0D" stroke-width="1"><animate attributeName="opacity" values="0.25;1;0.25" dur="2.6s" begin="2s" repeatCount="indefinite"/></circle><rect x="496" y="196" width="11" height="11" rx="0" fill="#8B6BFF" opacity="0.8"/><rect x="507" y="196" width="11" height="11" rx="0" fill="none" stroke="#2A3542" stroke-width="0.6"/><rect x="518" y="196" width="11" height="11" rx="0" fill="none" stroke="#2A3542" stroke-width="0.6"/><rect x="529" y="196" width="11" height="11" rx="0" fill="#8B6BFF" opacity="0.8"/><rect x="540" y="196" width="11" height="11" rx="0" fill="none" stroke="#2A3542" stroke-width="0.6"/><rect x="496" y="207" width="11" height="11" rx="0" fill="none" stroke="#2A3542" stroke-width="0.6"/><rect x="507" y="207" width="11" height="11" rx="0" fill="#8B6BFF" opacity="0.8"/><rect x="518" y="207" width="11" height="11" rx="0" fill="#8B6BFF" opacity="0.8"/><rect x="529" y="207" width="11" height="11" rx="0" fill="none" stroke="#2A3542" stroke-width="0.6"/><rect x="540" y="207" width="11" height="11" rx="0" fill="none" stroke="#2A3542" stroke-width="0.6"/><rect x="496" y="218" width="11" height="11" rx="0" fill="#8B6BFF" opacity="0.8"/><rect x="507" y="218" width="11" height="11" rx="0" fill="#8B6BFF" opacity="0.8"/><rect x="518" y="218" width="11" height="11" rx="0" fill="none" stroke="#2A3542" stroke-width="0.6"/><rect x="529" y="218" width="11" height="11" rx="0" fill="none" stroke="#2A3542" stroke-width="0.6"/><rect x="540" y="218" width="11" height="11" rx="0" fill="#8B6BFF" opacity="0.8"/><rect x="496" y="229" width="11" height="11" rx="0" fill="none" stroke="#2A3542" stroke-width="0.6"/><rect x="507" y="229" width="11" height="11" rx="0" fill="none" stroke="#2A3542" stroke-width="0.6"/><rect x="518" y="229" width="11" height="11" rx="0" fill="#8B6BFF" opacity="0.8"/><rect x="529" y="229" width="11" height="11" rx="0" fill="#8B6BFF" opacity="0.8"/><rect x="540" y="229" width="11" height="11" rx="0" fill="none" stroke="#2A3542" stroke-width="0.6"/><rect x="496" y="240" width="11" height="11" rx="0" fill="none" stroke="#2A3542" stroke-width="0.6"/><rect x="507" y="240" width="11" height="11" rx="0" fill="#8B6BFF" opacity="0.8"/><rect x="518" y="240" width="11" height="11" rx="0" fill="none" stroke="#2A3542" stroke-width="0.6"/><rect x="529" y="240" width="11" height="11" rx="0" fill="none" stroke="#2A3542" stroke-width="0.6"/><rect x="540" y="240" width="11" height="11" rx="0" fill="none" stroke="#2A3542" stroke-width="0.6"/><text x="496" y="264" font-family="ui-monospace,'Cascadia Code','JetBrains Mono',Menlo,Consolas,'DejaVu Sans Mono',monospace" font-size="8" fill="#5A6472" font-weight="400" letter-spacing="2">RASTER</text><line x1="570" y1="224" x2="604" y2="224" stroke="#5A6472" stroke-width="1.2" stroke-linecap="butt"/><path d="M600 219l7 5-7 5" fill="none" stroke="#5A6472" stroke-width="1.2" stroke-linecap="round" stroke-linejoin="round"/><path d="M612 200l34 12-8 18-20-4-10-14z" fill="none" stroke="#A9E838" stroke-width="1.6" stroke-linecap="round" stroke-linejoin="round"/><circle cx="612" cy="200" r="2.4" fill="#A9E838"/><text x="608" y="264" font-family="ui-monospace,'Cascadia Code','JetBrains Mono',Menlo,Consolas,'DejaVu Sans Mono',monospace" font-size="8" fill="#5A6472" font-weight="400" letter-spacing="2">VECTOR</text><line x1="484" y1="100" x2="898" y2="100" stroke="#19D3C5" stroke-width="1" stroke-linecap="butt" opacity="0.5"><animateTransform attributeName="transform" type="translate" values="0 0; 0 246; 0 0" dur="7.5s" repeatCount="indefinite"/></line><rect x="486" y="340" width="53" height="20" rx="3" fill="#0A0F15" stroke="#1D2530" stroke-width="1"/><text x="512.5" y="353.06" font-family="ui-monospace,'Cascadia Code','JetBrains Mono',Menlo,Consolas,'DejaVu Sans Mono',monospace" font-size="8.5" fill="#8A94A6" font-weight="400" text-anchor="middle">NODES 5</text><rect x="545" y="340" width="53" height="20" rx="3" fill="#0A0F15" stroke="#1D2530" stroke-width="1"/><text x="571.5" y="353.06" font-family="ui-monospace,'Cascadia Code','JetBrains Mono',Menlo,Consolas,'DejaVu Sans Mono',monospace" font-size="8.5" fill="#8A94A6" font-weight="400" text-anchor="middle">PATHS 2</text><rect x="604" y="340" width="58" height="20" rx="3" fill="#0A0F15" stroke="#1D2530" stroke-width="1"/><text x="633" y="353.06" font-family="ui-monospace,'Cascadia Code','JetBrains Mono',Menlo,Consolas,'DejaVu Sans Mono',monospace" font-size="8.5" fill="#8A94A6" font-weight="400" text-anchor="middle">LAYERS 2</text><rect x="668" y="340" width="69" height="20" rx="3" fill="#0A0F15" stroke="#1D2530" stroke-width="1"/><text x="702.5" y="353.06" font-family="ui-monospace,'Cascadia Code','JetBrains Mono',Menlo,Consolas,'DejaVu Sans Mono',monospace" font-size="8.5" fill="#8A94A6" font-weight="400" text-anchor="middle">REVERSIBLE</text></svg>